<?xml version="1.0" encoding="UTF-8"?>
<svg width="383px" height="96px" viewBox="0 0 383 96" version="1.1" xmlns="http://www.w3.org/2000/svg" xmlns:xlink="http://www.w3.org/1999/xlink">
    <title>3938147e-695e-46e8-83fb-ab1628fcd82a@0.00x</title>
    <g id="Logos" stroke="none" stroke-width="1" fill="none" fill-rule="evenodd">
        <g id="Logo/Zeppelin-Power-Systems/Old">
            <polygon id="Fill-1" fill="#FEC700" points="0 96 287 96 287 0 0 0"></polygon>
            <polygon id="Fill-3" fill="#000000" points="287 96 383 96 383 0 287 0"></polygon>
            <path d="M319.036258,62.5780552 C320.713083,61.1620064 321,59.4082768 321,57.8354476 L321,51.2245399 L311.883196,51.2245399 L311.883196,60.1972039 C311.883196,61.4785823 310.854664,62.517755 309.59084,62.517755 C308.325031,62.517755 307.381879,61.4785823 307.381879,60.1972039 L307.381879,34.7806861 C307.381879,33.4983027 308.325031,32.4591299 309.59084,32.4591299 C310.854664,32.4591299 311.883196,33.4983027 311.883196,34.7806861 L311.883196,43.8066152 L320.991065,43.8066152 L320.991065,34.4440102 C320.991065,29.2682464 317.651314,25.01206 309.51241,25 C301.160055,25 298,29.2803064 298,34.4530552 L298,60.989146 C298,66.1176746 302.019813,70 307.165451,70 L309.993914,70 L319.036258,62.5780552" id="Fill-5" fill="#FFFFFF"></path>
            <polyline id="Fill-6" fill="#FFFFFF" points="355.354577 63.6856218 355.354577 34.5776825 349 34.5776825 349 26 372 26 372 34.5776825 365.615344 34.5776825 365.615344 70 362.890235 70 355.354577 63.6856218"></polyline>
            <polyline id="Fill-7" fill="#FEC700" points="359 70 336.903587 51 314 70 359 70"></polyline>
            <path d="M334.264368,45.8835268 L336.708765,33.3781889 L339.135392,45.8835268 L334.264368,45.8835268 Z M342.998449,26 L330.364784,26 L323,59.0841551 L336.708765,48.0050033 L351,60 L342.998449,26 L342.998449,26 Z" id="Fill-8" fill="#FFFFFF"></path>
            <path d="M376.458836,28.2004756 C376.892426,28.1858423 376.993048,28.0093287 376.993048,27.7815987 C376.993048,27.5620999 376.892426,27.4486922 376.526528,27.4486922 L375.974936,27.4486922 L375.974936,28.2004756 L376.458836,28.2004756 Z M375.974936,28.6595939 L375.974936,29.9299433 L375.515734,29.9299433 L375.515734,26.9904884 L376.467984,26.9904884 C377.004025,26.9904884 377.563849,27.1349918 377.563849,27.8017194 C377.563849,28.1419426 377.356202,28.4080849 376.964691,28.4885678 L376.964691,28.5004573 C377.369923,28.579111 377.419319,28.7601975 377.465057,29.0784708 C377.501647,29.3565027 377.537322,29.6656301 377.637029,29.9299433 L377.050677,29.9299433 C377.019576,29.76349 376.972924,29.576916 376.951884,29.4031461 C376.918039,29.1516371 376.918039,28.9184196 376.786315,28.7812329 C376.672887,28.6595939 376.521039,28.672398 376.360959,28.6595939 L375.974936,28.6595939 Z M378.560922,28.4940552 C378.560922,27.3608926 377.644347,26.4389976 376.506403,26.4389976 C375.361142,26.4389976 374.437248,27.3608926 374.437248,28.4940552 C374.437248,29.6363636 375.361142,30.561917 376.506403,30.561917 C377.644347,30.561917 378.560922,29.6363636 378.560922,28.4940552 Z M374,28.4940552 C374,27.1167002 375.115075,26 376.506403,26 C377.890413,26 379,27.1167002 379,28.4940552 C379,29.8832998 377.890413,31 376.506403,31 C375.115075,31 374,29.8832998 374,28.4940552 L374,28.4940552 Z" id="Fill-9" fill="#FFFFFF"></path>
            <path d="M269.46341,22.2004756 C269.893341,22.1849277 269.993963,22.0093287 269.993963,21.7806841 C269.993963,21.5630145 269.893341,21.4486922 269.526528,21.4486922 L268.975851,21.4486922 L268.975851,22.2004756 L269.46341,22.2004756 Z M268.975851,22.6595939 L268.975851,23.9290287 L268.516648,23.9290287 L268.516648,20.9904884 L269.467984,20.9904884 C270.007684,20.9904884 270.566593,21.1359063 270.566593,21.802634 C270.566593,22.141028 270.359861,22.4080849 269.969265,22.4885678 L269.969265,22.5013719 C270.372667,22.579111 270.420234,22.7611121 270.465971,23.0793854 C270.505306,23.3565027 270.538236,23.6647156 270.639773,23.9290287 L270.053421,23.9290287 C270.019576,23.7644046 269.975668,23.5778306 269.952799,23.4040607 C269.921698,23.1516371 269.921698,22.9184196 269.786315,22.7812329 C269.674716,22.6595939 269.521039,22.672398 269.361873,22.6595939 L268.975851,22.6595939 Z M271.565496,22.4940552 C271.565496,21.3608926 270.645262,20.438083 269.509147,20.438083 C268.363886,20.438083 267.438163,21.3608926 267.438163,22.4940552 C267.438163,23.6372782 268.363886,24.561917 269.509147,24.561917 C270.645262,24.561917 271.565496,23.6372782 271.565496,22.4940552 Z M267,22.4940552 C267,21.1176148 268.116905,20 269.509147,20 C270.890413,20 272,21.1176148 272,22.4940552 C272,23.8832998 270.890413,25 269.509147,25 C268.116905,25 267,23.8832998 267,22.4940552 L267,22.4940552 Z" id="Fill-10" fill="#1D1D1B"></path>
            <path d="M57.2435607,65.5262696 C59.3913666,65.4488026 60.2873837,64.5005677 60.2873837,63.1061623 C60.2873837,61.7097956 59.3913666,60.7625413 57.2435607,60.6850743 L54.4389459,60.6850743 L54.4389459,65.5262696 L57.2435607,65.5262696 Z M49,76 L49,57 L58.0311233,57 C62.8446816,57 66,58.5012903 66,63.1061623 C66,67.7100537 62.8446816,69.2133051 58.0311233,69.2133051 L54.4389459,69.2133051 L54.4389459,76 L49,76 L49,76 Z" id="Fill-11" fill="#1D1D1B"></path>
            <path d="M74.0005105,73.1072354 C76.191564,73.1072354 76.6561164,70.8685298 76.6561164,69.0024515 C76.6561164,67.1324508 76.191564,64.8957064 74.0005105,64.8957064 C71.807415,64.8957064 71.3408206,67.1324508 71.3408206,69.0024515 C71.3408206,70.8685298 71.807415,73.1072354 74.0005105,73.1072354 Z M82,69.0024515 C82,73.8691602 78.30298,76 74.0005105,76 C69.698041,76 66,73.8691602 66,69.0024515 C66,64.1318204 69.698041,62 74.0005105,62 C78.30298,62 82,64.1318204 82,69.0024515 L82,69.0024515 Z" id="Fill-12" fill="#1D1D1B"></path>
            <polyline id="Fill-13" fill="#1D1D1B" points="87.168189 76 83 63 88.2287582 63 90.4341331 72.2176204 90.4899525 72.2176204 92.8881582 63 98.6060975 63 100.976901 72.1655162 101.030691 72.1655162 103.426866 63 108 63 103.699874 76 97.9788901 76 95.4994926 66.9377273 95.4477327 66.9377273 92.7785491 76 87.168189 76"></polyline>
            <path d="M118.322041,67.3158227 C118.322041,66.604889 118.114906,65.8949359 117.727738,65.3428591 C117.334762,64.7898018 116.765625,64.4485536 116.010647,64.5015059 C114.299364,64.5809344 113.88219,65.8155075 113.750553,67.3158227 L118.322041,67.3158227 Z M113.648921,70.0007004 C113.620852,71.7089024 114.064159,73.1876445 115.906112,73.1876445 C117.283462,73.1876445 118.142008,72.5267213 118.322041,71.2892064 L122.895465,71.2892064 C122.739629,73.0013308 121.672013,74.2378651 120.427268,74.9742943 C119.28609,75.7107235 117.829369,76 116.299087,76 C111.076189,76 109,73.7367794 109,68.5523569 C109,64.367164 112.09057,62 116.010647,62 C121.310011,62 123,65.0780976 123,70.0007004 L113.648921,70.0007004 L113.648921,70.0007004 Z" id="Fill-14" fill="#1D1D1B"></path>
            <path d="M131.352815,64.9565133 L131.410854,64.9565133 C132.01059,62.7088758 133.704918,61.94823 136,62.002706 L136,66.3597736 C135.618165,66.3345532 135.25975,66.3345532 134.908461,66.3345532 C132.202016,66.3597736 131.272376,67.9607614 131.352815,70.5584574 L131.352815,76 L126.161898,76 L126.161898,65.9027808 C126.161898,64.6841335 126.136442,63.8720383 126,62.4082492 L131.272376,62.4082492 L131.352815,64.9565133" id="Fill-15" fill="#1D1D1B"></path>
            <path d="M156.989396,62.0355851 C157.013299,61.2911731 156.774269,60.733112 156.294218,60.3336472 C155.837073,59.9322 155.142891,59.7250335 154.233581,59.7250335 C153.006562,59.7250335 151.936903,60.519998 151.936903,61.4775239 C151.936903,62.8880408 153.646962,63.3400406 155.06421,63.7107598 C158.295096,64.5364524 163,64.8556277 163,70.0427219 C163,74.083957 158.992267,76 154.527389,76 C150.036616,76 146.081669,74.6965357 146,69.4836695 L151.347296,69.4836695 C151.321401,71.2916687 152.658972,72.2749665 154.580175,72.2749665 C155.812174,72.2749665 157.389771,71.6376072 157.389771,70.3599148 C157.389771,67.7559598 153.431835,68.3150121 149.235866,66.4772761 C147.284785,65.6258116 146.32269,63.8703474 146.32269,61.7947168 C146.536821,57.2489468 150.544554,56 154.580175,56 C158.564005,56 162.653407,57.406552 162.331712,62.0355851 L156.989396,62.0355851" id="Fill-16" fill="#1D1D1B"></path>
            <polyline id="Fill-17" fill="#1D1D1B" points="179 62 171.56225 81 166.788966 81 168.726113 76.1543624 163 62 168.534125 62 171.233128 71.5545772 171.287982 71.5545772 174.229763 62 179 62"></polyline>
            <path d="M186.932172,66.4764306 C186.932172,66.0263361 186.84873,65.6321356 186.607453,65.3673741 C186.336016,65.0780976 185.905738,64.8957064 185.203018,64.8957064 C184.447016,64.8957064 183.98859,65.316383 183.98859,66.0822302 C183.98859,67.0510611 186.065585,66.9990894 189.276583,67.9718428 C190.897162,68.4748897 192,69.4466625 192,71.6088814 C192,75.1047139 188.627145,76 185.527737,76 C182.210175,76 178.972033,75.341038 179.000182,71.314702 L183.854882,71.314702 C183.77144,71.7089024 183.909169,72.1560552 184.205739,72.498284 C184.502309,72.8395321 184.934598,73.1072354 185.419163,73.1072354 C186.418453,73.1072354 187.1453,72.7375499 187.1453,71.8961967 C187.1453,69.5535477 179.13389,70.9459971 179.13389,66.1596974 C179.13389,62.8952861 182.69474,62 185.393024,62 C188.604023,62 191.569722,62.8138965 191.78285,66.4764306 L186.932172,66.4764306" id="Fill-18" fill="#1D1D1B"></path>
            <path d="M196.708548,63.0029143 L196.708548,60.9439556 L201.959835,59 L201.959835,63.0029143 L205,63.0029143 L205,66.251247 L201.959835,66.251247 L201.959835,71.6392423 C201.959835,71.9903043 201.740474,73.7486409 202.953656,73.7486409 C203.643666,73.7486409 204.363543,73.7486409 204.971164,73.672981 L204.971164,76.7276243 C203.785788,76.9455249 202.92482,77 202.15139,77 C198.584964,77 196.431514,76.5147677 196.708548,72.3423752 L196.708548,66.251247 L194,66.251247 L194,63.0029143 L196.708548,63.0029143" id="Fill-19" fill="#1D1D1B"></path>
            <path d="M215.327205,67.3158227 C215.327205,66.604889 215.118192,65.8949359 214.725325,65.3428591 C214.339231,64.7898018 213.766381,64.4485536 213.015482,64.5015059 C211.297899,64.5809344 210.884711,65.8155075 210.755046,67.3158227 L215.327205,67.3158227 Z M210.650539,70.0007004 C210.626348,71.7089024 211.064694,73.1876445 212.908073,73.1876445 C214.286011,73.1876445 215.142383,72.5267213 215.327205,71.2892064 L219.894526,71.2892064 C219.741637,73.0013308 218.675283,74.2378651 217.428947,74.9742943 C216.286149,75.7107235 214.830799,76 213.299972,76 C208.07755,76 206,73.7367794 206,68.5523569 C206,64.367164 209.093586,62 213.015482,62 C218.310478,62 220,65.0780976 220,70.0007004 L210.650539,70.0007004 L210.650539,70.0007004 Z" id="Fill-20" fill="#1D1D1B"></path>
            <path d="M228.174946,64.6557117 L228.225424,64.6557117 C229.176419,62.786018 230.961301,62.0837477 232.993522,62.0837477 C234.647163,62.0837477 236.517856,62.9484685 237.084213,64.5992072 C238.00896,62.9747027 239.875615,62.0534775 241.907837,62 C244.833509,62 247,63.8959279 247,66.9037838 L247,76 L241.850292,76 L241.850292,68.0136937 C241.798805,66.6858378 241.471712,65.251027 239.875615,65.251027 C237.330543,65.251027 237.652589,68.0389189 237.652589,68.2013694 L237.652589,76 L232.508939,76 L232.508939,68.0136937 C232.455433,66.6858378 232.128339,65.251027 230.529214,65.251027 C227.986161,65.251027 228.309216,68.0389189 228.309216,68.2013694 L228.309216,76 L223.162537,76 L223.162537,65.9008288 C223.162537,64.6819459 223.136289,63.8696937 223,62.4056216 L228.091154,62.4056216 L228.174946,64.6557117" id="Fill-21" fill="#1D1D1B"></path>
            <path d="M257.930868,66.4764306 C257.930868,66.0263361 257.848476,65.6321356 257.606323,65.3673741 C257.33905,65.0780976 256.905989,64.8957064 256.20264,64.8957064 C255.448048,64.8957064 254.988862,65.316383 254.988862,66.0822302 C254.988862,67.0510611 257.068764,66.9990894 260.277037,67.9718428 C261.894738,68.4748897 263,69.4466625 263,71.6088814 C263,75.1047139 259.627947,76 256.52819,76 C253.21341,76 249.978007,75.341038 250,71.314702 L254.859245,71.314702 C254.775848,71.7089024 254.909484,72.1560552 255.207905,72.498284 C255.502306,72.8395321 255.935368,73.1072354 256.421683,73.1072354 C257.418428,73.1072354 258.143882,72.7375499 258.143882,71.8961967 C258.143882,69.5535477 250.136763,70.9459971 250.136763,66.1596974 C250.136763,62.8952861 253.696711,62 256.394554,62 C259.602827,62 262.565934,62.8138965 262.782967,66.4764306 L257.930868,66.4764306" id="Fill-22" fill="#1D1D1B"></path>
            <polyline id="Fill-23" fill="#1D1D1B" points="48.7728404 20 75 20 75 25.2531029 60.3723646 41.6411233 75 41.6411233 75 47 48 47 48 41.6411233 62.4487555 25.2531029 48.7728404 25.2531029 48.7728404 20"></polyline>
            <polyline id="Fill-24" fill="#1D1D1B" points="241.436394 20 254.707161 36.1250686 254.707161 20 263 20 263 47 254.707161 47 241.314069 30.7068795 241.314069 47 233 47 233 20 241.436394 20"></polyline>
            <polyline id="Fill-25" fill="#1D1D1B" points="196 20 205.11848 20 205.11848 41.6470545 215 41.6470545 215 47 196 47 196 20"></polyline>
            <polyline id="Fill-26" fill="#1D1D1B" points="82 20 104.221079 20 104.221079 25.3568996 91.5075062 25.3568996 91.5075062 30.830447 103.417785 30.830447 103.417785 36.1893238 91.5075062 36.1893238 91.5075062 41.6104785 105 41.6104785 105 47 82 47 82 20"></polyline>
            <path d="M124.736103,33.7051223 C123.609272,34.8142645 121.140879,34.7855968 121.140879,34.7855968 L119.605659,34.8142645 L119.605659,25.4567425 L121.140879,25.4567425 C121.140879,25.4567425 123.176801,25.3964416 124.109974,25.9974741 C125.530805,26.9316446 125.895043,28.281002 125.895043,29.8359758 C125.895043,31.3899611 125.81477,32.6315676 124.736103,33.7051223 M127.695164,20.751291 C125.372266,19.9950577 120.114389,20 120.114389,20 L116.107766,20 L116.107766,20.002966 L110,20 L110,47 L119.605659,47 L119.605659,40.6160071 C120.621112,40.5932707 121.589404,40.5853624 122.128236,40.5853624 C123.563115,40.5853624 126.154927,40.268041 127.931969,39.6304325 C132.583785,37.9597995 135,34.1420571 135,30.1977815 C135,26.130927 132.862733,22.4011647 127.695164,20.751291" id="Fill-27" fill="#1D1D1B"></path>
            <polyline id="Fill-28" fill="#1D1D1B" points="167 20 189.205146 20 189.205146 25.3568996 176.500684 25.3568996 176.500684 30.830447 188.406232 30.830447 188.406232 36.1893238 176.500684 36.1893238 176.500684 41.6104785 190 41.6104785 190 47 167 47 167 20"></polyline>
            <path d="M153.740836,33.7051223 C152.610632,34.8142645 150.141446,34.7855968 150.141446,34.7855968 L148.599711,34.8142645 L148.599711,25.4567425 L150.141446,25.4567425 C150.141446,25.4567425 152.172,25.3964416 153.110491,25.9974741 C154.530774,26.9316446 154.904163,28.281002 154.904163,29.8359758 C154.904163,31.3899611 154.818846,32.6315676 153.740836,33.7051223 M156.695828,20.751291 C154.369173,19.9950577 149.117638,20 149.117638,20 L145.103706,20 L145.103706,20.002966 L139,20 L139,47 L148.599711,47 L148.599711,40.6160071 C149.61549,40.5932707 150.588108,40.5853624 151.128117,40.5853624 C152.567471,40.5853624 155.157104,40.268041 156.928695,39.6304325 C161.585016,37.9597995 164,34.1420571 164,30.1977815 C164,26.130927 161.869073,22.4011647 156.695828,20.751291" id="Fill-29" fill="#1D1D1B"></path>
            <polygon id="Fill-30" fill="#1D1D1B" points="218 47 227 47 227 20 218 20"></polygon>
        </g>
    </g>
</svg>